<svg width="24" height="25" viewBox="0 0 24 25" fill="none" xmlns="http://www.w3.org/2000/svg">
<path d="M24 8.50019V1.49985C24 0.947658 23.5523 0.5 23.0002 0.5C22.448 0.5 22.0003 0.947658 22.0003 1.49985V8.49973C22.0003 9.05192 22.448 9.49957 23.0002 9.49957C23.5523 9.49957 24 9.05239 24 8.50019Z" fill="white"/>
<path d="M15.9998 2.50017H22.9997C23.5519 2.50017 24 2.05204 24 1.49985C24 0.947658 23.5523 0.5 23.0002 0.5H16.0003C15.4481 0.5 15.0005 0.947658 15.0005 1.49985C15.0005 2.05204 15.4477 2.50017 15.9998 2.50017Z" fill="white"/>
<path d="M22.2928 0.79297L13.2928 9.79301C12.9023 10.1835 12.9023 10.8168 13.2928 11.2072C13.6833 11.5977 14.3166 11.5977 14.707 11.2072L23.707 2.2072C24.0975 1.81673 24.0975 1.18344 23.707 0.79297C23.3166 0.4025 22.6833 0.4025 22.2928 0.79297Z" fill="white"/>
<path d="M0 16.4999V23.4998C0 24.052 0.447656 24.4996 0.999844 24.4996C1.55203 24.4996 1.99969 24.052 1.99969 23.4998V16.4999C1.99969 15.9477 1.55203 15.5001 0.999844 15.5001C0.447656 15.5001 0 15.9477 0 16.4999Z" fill="white"/>
<path d="M8.00016 22.5H0.999844C0.447656 22.5 0 22.9476 0 23.4998C0 24.052 0.447656 24.4996 0.999844 24.4996H7.99969C8.55188 24.4996 8.99953 24.052 8.99953 23.4998C8.99953 22.9476 8.55234 22.5 8.00016 22.5Z" fill="white"/>
<path d="M1.70719 24.2071L10.7072 15.2071C11.0977 14.8166 11.0977 14.1833 10.7072 13.7929C10.3167 13.4024 9.68344 13.4024 9.29297 13.7929L0.292969 22.7929C-0.0975 23.1834 -0.0975 23.8167 0.292969 24.2071C0.683437 24.5976 1.31672 24.5976 1.70719 24.2071Z" fill="white"/>
</svg>
