<svg width="25" height="24" viewBox="0 0 25 24" fill="none" xmlns="http://www.w3.org/2000/svg">
<path d="M16.0273 14.2559H15.2373L14.9573 13.9859C15.9373 12.8459 16.5273 11.3659 16.5273 9.75586C16.5273 6.16586 13.6173 3.25586 10.0273 3.25586C6.43734 3.25586 3.52734 6.16586 3.52734 9.75586C3.52734 13.3459 6.43734 16.2559 10.0273 16.2559C11.6373 16.2559 13.1173 15.6659 14.2573 14.6859L14.5273 14.9659V15.7559L19.5273 20.7459L21.0173 19.2559L16.0273 14.2559ZM10.0273 14.2559C7.53734 14.2559 5.52734 12.2459 5.52734 9.75586C5.52734 7.26586 7.53734 5.25586 10.0273 5.25586C12.5173 5.25586 14.5273 7.26586 14.5273 9.75586C14.5273 12.2459 12.5173 14.2559 10.0273 14.2559Z" fill="white"/>
</svg>
