<svg width="20" height="21" viewBox="0 0 20 21" fill="none" xmlns="http://www.w3.org/2000/svg">
<path d="M17.1382 11.4384C17.1782 11.1384 17.1982 10.8284 17.1982 10.4984C17.1982 10.1784 17.1782 9.85844 17.1282 9.55844L19.1582 7.97844C19.3382 7.83844 19.3882 7.56844 19.2782 7.36844L17.3582 4.04844C17.2382 3.82844 16.9882 3.75844 16.7682 3.82844L14.3782 4.78844C13.8782 4.40844 13.3482 4.08844 12.7582 3.84844L12.3982 1.30844C12.3582 1.06844 12.1582 0.898438 11.9182 0.898438H8.07816C7.83816 0.898438 7.64816 1.06844 7.60816 1.30844L7.24816 3.84844C6.65816 4.08844 6.11816 4.41844 5.62816 4.78844L3.23816 3.82844C3.01816 3.74844 2.76816 3.82844 2.64816 4.04844L0.738157 7.36844C0.618157 7.57844 0.658156 7.83844 0.858156 7.97844L2.88816 9.55844C2.83816 9.85844 2.79816 10.1884 2.79816 10.4984C2.79816 10.8084 2.81816 11.1384 2.86816 11.4384L0.838157 13.0184C0.658156 13.1584 0.608157 13.4284 0.718157 13.6284L2.63816 16.9484C2.75816 17.1684 3.00816 17.2384 3.22816 17.1684L5.61816 16.2084C6.11816 16.5884 6.64816 16.9084 7.23816 17.1484L7.59816 19.6884C7.64816 19.9284 7.83816 20.0984 8.07816 20.0984H11.9182C12.1582 20.0984 12.3582 19.9284 12.3882 19.6884L12.7482 17.1484C13.3382 16.9084 13.8782 16.5884 14.3682 16.2084L16.7582 17.1684C16.9782 17.2484 17.2282 17.1684 17.3482 16.9484L19.2682 13.6284C19.3882 13.4084 19.3382 13.1584 19.1482 13.0184L17.1382 11.4384ZM9.99816 14.0984C8.01816 14.0984 6.39816 12.4784 6.39816 10.4984C6.39816 8.51844 8.01816 6.89844 9.99816 6.89844C11.9782 6.89844 13.5982 8.51844 13.5982 10.4984C13.5982 12.4784 11.9782 14.0984 9.99816 14.0984Z" fill="white"/>
</svg>
